<svg xmlns="http://www.w3.org/2000/svg" viewBox="0 0 512 512">
  <defs>
    <radialGradient id="bg" cx="50%" cy="55%" r="65%">
      <stop offset="0%"   stop-color="#3a2608" stop-opacity="1"/>
      <stop offset="100%" stop-color="#0a0806" stop-opacity="1"/>
    </radialGradient>
    <radialGradient id="glow7" cx="50%" cy="45%" r="55%">
      <stop offset="0%"   stop-color="#e0b428" stop-opacity=".28"/>
      <stop offset="100%" stop-color="#e0b428" stop-opacity="0"/>
    </radialGradient>
    <filter id="f7" x="-30%" y="-30%" width="160%" height="160%">
      <feGaussianBlur stdDeviation="14" result="b"/>
      <feMerge><feMergeNode in="b"/><feMergeNode in="SourceGraphic"/></feMerge>
    </filter>
    <linearGradient id="stripe" x1="0%" y1="0%" x2="0%" y2="100%">
      <stop offset="0%"   stop-color="rgba(255,255,255,.18)"/>
      <stop offset="100%" stop-color="rgba(255,255,255,0)"/>
    </linearGradient>
  </defs>

  <!-- Background -->
  <rect width="512" height="512" rx="96" fill="url(#bg)"/>
  <!-- Glow behind "7" -->
  <rect width="512" height="512" rx="96" fill="url(#glow7)"/>

  <!-- Subtle star dots -->
  <circle cx="72"  cy="72"  r="2.5" fill="#e8c040" opacity=".55"/>
  <circle cx="440" cy="88"  r="2"   fill="#e8c040" opacity=".40"/>
  <circle cx="460" cy="200" r="1.5" fill="#e8c040" opacity=".28"/>
  <circle cx="52"  cy="200" r="1.5" fill="#e8c040" opacity=".28"/>
  <circle cx="130" cy="44"  r="1.5" fill="#e8c040" opacity=".32"/>
  <circle cx="380" cy="52"  r="2"   fill="#e8c040" opacity=".38"/>

  <!-- ── "7" — giant, bold, golden ── -->
  <g filter="url(#f7)">
    <text
      x="258" y="295"
      font-family="Georgia,'Times New Roman',serif"
      font-size="320" font-weight="900"
      fill="#e8c040"
      text-anchor="middle"
      dominant-baseline="alphabetic">7</text>
  </g>

  <!-- ── 5-card colour strip at bottom ── -->
  <!-- Card height: 72, width: each fills 1/5 of 512 minus gaps -->
  <!-- Total gap: 4 gaps × 6px = 24px, each card = (512-24)/5 = 97.6 → 97px, adjusted -->
  <!-- Actually: 5 cards × 96px + 4 gaps × 8px = 480 + 32 = 512 → x start = 0 -->

  <!-- Card 1: orange-brown -->
  <rect x="4"   y="414" width="93" height="80" rx="10" fill="#c86830"/>
  <rect x="4"   y="414" width="93" height="22" rx="10" fill="url(#stripe)"/>
  <rect x="4"   y="414" width="93" height="80" rx="10" fill="none" stroke="rgba(255,200,130,.45)" stroke-width="2"/>

  <!-- Card 2: blue -->
  <rect x="105" y="414" width="93" height="80" rx="10" fill="#1e6ab8"/>
  <rect x="105" y="414" width="93" height="22" rx="10" fill="url(#stripe)"/>
  <rect x="105" y="414" width="93" height="80" rx="10" fill="none" stroke="rgba(100,190,255,.45)" stroke-width="2"/>

  <!-- Card 3: green -->
  <rect x="206" y="414" width="100" height="80" rx="10" fill="#1a9048"/>
  <rect x="206" y="414" width="100" height="22" rx="10" fill="url(#stripe)"/>
  <rect x="206" y="414" width="100" height="80" rx="10" fill="none" stroke="rgba(80,230,140,.45)" stroke-width="2"/>

  <!-- Card 4: red -->
  <rect x="314" y="414" width="93" height="80" rx="10" fill="#c02222"/>
  <rect x="314" y="414" width="93" height="22" rx="10" fill="url(#stripe)"/>
  <rect x="314" y="414" width="93" height="80" rx="10" fill="none" stroke="rgba(255,110,110,.45)" stroke-width="2"/>

  <!-- Card 5: purple -->
  <rect x="415" y="414" width="93" height="80" rx="10" fill="#7828c0"/>
  <rect x="415" y="414" width="93" height="22" rx="10" fill="url(#stripe)"/>
  <rect x="415" y="414" width="93" height="80" rx="10" fill="none" stroke="rgba(200,120,255,.45)" stroke-width="2"/>

  <!-- Gold separator line above cards -->
  <rect x="4" y="408" width="504" height="3" rx="1.5" fill="#e8c040" opacity=".55"/>

  <!-- Border -->
  <rect x="3" y="3" width="506" height="506" rx="94"
        fill="none" stroke="rgba(220,170,40,.35)" stroke-width="3.5"/>
</svg>
